<svg width="60" height="55" viewBox="0 0 60 55" fill="none" xmlns="http://www.w3.org/2000/svg">
<path d="M54.0451 5.52073C50.1824 2.04949 45.0966 0.124268 39.6567 0.124268C34.2167 0.124268 29.1309 2.04949 25.2682 5.52073C22.2747 8.23354 20.3112 11.6756 19.603 15.3802C19.5386 15.7594 19.4743 16.1386 19.4421 16.5178C19.4099 16.897 19.3777 17.2763 19.3455 17.6555C19.3133 17.9472 19.3133 18.268 19.3133 18.5597V21.0684V22.206V23.3436V37.0244H34.4099H35.6652H36.9206C36.9528 36.7035 36.9528 36.4118 36.9528 36.0909V33.6115H35.6974H23.0794V23.3145V21.0684V18.5889C23.0794 18.268 23.0794 17.9763 23.1116 17.6555C23.1438 17.2763 23.176 16.897 23.2403 16.5178C23.3047 16.1386 23.3691 15.7594 23.4657 15.3802C24.1416 12.5215 25.7511 9.95457 27.9399 7.94184C30.9335 5.22902 35.0858 3.53716 39.6567 3.53716C48.7983 3.53716 56.2339 10.2754 56.2339 18.5597C56.2339 22.7019 54.367 26.4648 51.3734 29.1776C49.1524 31.1904 46.3197 32.6197 43.1652 33.2323V33.5531V36.0618C43.1652 36.2951 43.1652 36.4993 43.1652 36.7327C47.2532 36.0909 51.0515 34.3116 54.0451 31.5987C57.8755 28.1275 60 23.4895 60 18.5597C60 13.63 57.8755 8.99196 54.0451 5.52073Z" fill="#F7654A"/>
<path d="M23.0794 21.0391H24.3348H25.5901H36.9528V31.3361V32.4738V33.6114V36.0909C36.9528 36.4117 36.9528 36.7034 36.9206 37.0243C36.8884 37.4035 36.8562 37.7827 36.7919 38.1619C36.7275 38.5411 36.6631 38.9204 36.5665 39.2996C35.8906 42.1582 34.2811 44.7252 32.0923 46.7379C29.0987 49.4507 24.9464 51.1426 20.3755 51.1426C11.2339 51.1426 3.79828 44.4043 3.79828 36.12C3.79828 31.9779 5.66524 28.2149 8.6588 25.5021C10.8798 23.4894 13.7124 22.0601 16.867 21.4475V18.618C16.867 18.3846 16.867 18.1805 16.867 17.9471C12.779 18.5888 8.98069 20.3682 5.98713 23.081C2.12446 26.4939 0 31.1319 0 36.0617C0 40.9914 2.12446 45.6003 5.95494 49.1007C9.78541 52.5719 14.9034 54.4972 20.3433 54.4972C25.7833 54.4972 30.8691 52.5719 34.7318 49.1007C38.3369 45.8337 40.4292 41.5457 40.6545 36.966C40.6545 36.8201 40.6545 36.6743 40.6867 36.5284C40.6867 36.4409 40.6867 36.3826 40.6867 36.295C40.6867 36.2075 40.6867 36.1492 40.6867 36.0617V33.5531V17.6262H25.5901H24.3348H23.0794C23.0472 17.9471 23.0472 18.2388 23.0472 18.5597L23.0794 21.0391Z" fill="#F7654A"/>
</svg>
